<?xml version="1.0" standalone="no"?>
<!DOCTYPE svg PUBLIC "-//W3C//DTD SVG 20010904//EN"
 "http://www.w3.org/TR/2001/REC-SVG-20010904/DTD/svg10.dtd">
<svg version="1.0" xmlns="http://www.w3.org/2000/svg"
 width="260.000000pt" height="260.000000pt" viewBox="0 0 260.000000 260.000000"
 preserveAspectRatio="xMidYMid meet">
<metadata>
Created by potrace 1.14, written by Peter Selinger 2001-2017
</metadata>
<g transform="translate(0.000000,260.000000) scale(0.100000,-0.100000)"
fill="#000000" stroke="none">
<path d="M0 1300 l0 -1300 1300 0 1300 0 0 1300 0 1300 -1300 0 -1300 0 0
-1300z m1162 10 c113 -278 207 -511 207 -517 1 -10 -26 -13 -101 -13 l-103 0
-55 148 -56 147 -186 3 -186 2 -53 -150 -54 -150 -99 0 c-89 0 -98 2 -93 18 2
9 87 231 187 492 100 261 187 488 192 503 l10 28 91 -3 92 -3 207 -505z m824
482 c165 -75 218 -276 109 -417 l-24 -32 49 -52 c62 -66 84 -127 78 -221 -7
-128 -82 -228 -201 -266 -42 -14 -103 -18 -319 -22 l-268 -4 0 522 0 521 263
-3 c249 -3 265 -4 313 -26z"/>
<path d="M852 1550 c-8 -28 -76 -215 -107 -292 -7 -17 3 -18 119 -18 69 0 126
1 126 3 0 1 -29 78 -64 172 -62 165 -64 169 -74 135z"/>
<path d="M1590 1531 l0 -121 143 0 c156 0 200 12 224 60 27 54 11 126 -36 157
-21 14 -55 18 -178 21 l-153 4 0 -121z"/>
<path d="M1590 1090 l0 -140 130 0 c160 0 218 11 255 50 36 37 45 111 20 159
-29 57 -77 71 -252 71 l-153 0 0 -140z"/>
</g>
</svg>
